Simulation
nRows=44
nColumns=15
endheader
time  TH_x TH_y TH_z SC_y  SC_z  SC_x  AC_y  AC_z  AC_x  GH_y  GH_z  GH_yy  EL_x  PS_y
0.0  0.000000  0.000000  0.000000  -40.97484877243665  6.293857566463187  5.290427962726946  40.95740454563094  -1.7311478662338509  -5.14436159635082  64.65827153140827  6.184987620938876  -36.177237572074404  22.60720000003466  120.000000
0.05745  0.000000  0.000000  0.000000  -40.36092930317626  5.296429257100062  3.98238462022921  41.00168339163637  -1.1889776036868847  -4.8862585133464576  43.34134473821187  7.335184144306914  -15.640764349353764  22.05210986625223  120.000000
0.1149  0.000000  0.000000  0.000000  -39.78555086690683  4.1747130191055835  2.593725850012863  41.09023104537134  -0.8349631815382828  -4.605172329996259  29.771873961037535  9.055703214874246  -2.86902381692837  21.65902943215984  120.000000
0.17235  0.000000  0.000000  0.000000  -39.297927467101935  3.0354081896541514  1.161650485227737  41.22750040924905  -0.619675671814316  -4.240463033311346  21.235033416037606  11.032405142444064  4.798675396565548  21.513113471954313  120.000000
0.2298  0.000000  0.000000  0.000000  -38.923086883974456  1.9525805131622185  -0.2699299936287955  41.44437810719306  -0.4558747811062129  -3.738279243526989  15.509227754655608  13.182941874038896  9.532801688158091  21.626291018456982  120.000000
0.28725  0.000000  0.000000  0.000000  -38.6699145533187  0.9934370553898751  -1.6666125279712691  41.764681811295  -0.24891673903223704  -3.060643921359698  11.339150178678825  15.529804143744249  12.541304949099745  21.942951497619386  120.000000
0.3447  0.000000  0.000000  0.000000  -38.55377181903368  0.212348897588057  -2.9926642366554286  42.19622119667775  0.07119415472188904  -2.2004120584148157  8.070722705268663  18.129661427066345  14.4434973609028  22.36770170222732  120.000000
0.40215  0.000000  0.000000  0.000000  -38.607196041923636  -0.35823624682303656  -4.212419213019883  42.736254776509085  0.5339955993657891  -1.186884651168523  5.382089392337057  21.032697761259577  15.545338115776847  22.79093521240797  120.000000
0.4596  0.000000  0.000000  0.000000  -38.86904457364588  -0.6980191068153087  -5.29155186874055  43.37265064916972  1.1265646517830348  -0.061533631223141226  3.116601851479032  24.25155426548299  16.014926972130674  23.11853869500556  120.000000
0.51705  0.000000  0.000000  0.000000  -39.36866206802061  -0.7881132669930591  -6.205109010504075  44.092676742059965  1.8138429053420726  1.1492410296454931  1.2029810694132967  27.750272027093914  15.95983568568814  23.288609355610138  120.000000
0.5745  0.000000  0.000000  0.000000  -40.112099797431306  -0.6137111693621858  -6.963572964037677  44.891604910332326  2.5838752433357435  2.4576038710786654  -0.3907640785194023  31.44535747329367  15.465170982447457  23.28052081124036  120.000000
0.63195  0.000000  0.000000  0.000000  -41.0838899088787  -0.16965945962127535  -7.578884990687668  45.767400814449445  3.4528887262284513  3.887126733485963  -1.688090224845877  35.21402991894553  14.604697312187735  23.105385595075624  120.000000
0.6894  0.000000  0.000000  0.000000  -42.23560025486375  0.5356264091178065  -8.02735204609105  46.71940472475567  4.456696490166983  5.428354273299518  -2.725901682253567  38.90231466687889  13.445369895199383  22.78996796717634  120.000000
0.74685  0.000000  0.000000  0.000000  -43.49016805965062  1.472696984109082  -8.249619191999535  47.73541112518795  5.638569893399035  7.050572022520778  -3.5513697807859628  42.33329202312616  12.039170622773787  22.367472462651246  120.000000
0.8043  0.000000  0.000000  0.000000  -44.7453048506181  2.58617428869834  -8.17192071189448  48.790907891443126  7.030271246497489  8.702291955197246  -4.211292598507487  45.331100251651954  10.422256622010469  21.874692399863754  120.000000
0.86175  0.000000  0.000000  0.000000  -45.90591861020323  3.8140849473819545  -7.731175548015986  49.850755362911606  8.629242484718256  10.314498695953107  -4.7419129127040245  47.768163076836416  8.62183918307865  21.347798652951443  120.000000
0.9192  0.000000  0.000000  0.000000  -46.92649152312864  5.099148953207424  -6.885379526750258  50.861973988293805  10.387092712557706  11.826518716310618  -5.163326992518678  49.60352500654978  6.675026818889739  20.820692722353414  120.000000
0.97665  0.000000  0.000000  0.000000  -47.814084450391135  6.397073251647038  -5.620096187293293  51.76682353211194  12.216017961692987  13.20038622878016  -5.480477232214839  50.88482280945832  4.646863217846176  20.31793713198751  120.000000
1.0341  0.000000  0.000000  0.000000  -48.60889496674291  7.676494272892686  -3.946811272102706  52.51823042010613  14.01183757166999  14.421558298364925  -5.691496379795529  51.71707316780228  2.641911112444174  19.852776614959865  120.000000
1.09155  0.000000  0.000000  0.000000  -49.35816880015301  8.902691819562403  -1.9006850167818239  53.08518765687293  15.675689423559088  15.494360817565324  -5.800229838941851  52.2237563448736  0.7969385339284141  19.425612246975124  120.000000
1.149  0.000000  0.000000  0.000000  -50.09574558599452  10.033852674940645  0.45508460393442546  53.458177064321355  17.12913148407181  16.427878395484626  -5.819320389316194  52.51474396530509  -0.7490746516318654  19.02949292604368  120.000000
1.20645  0.000000  0.000000  0.000000  -50.83438290558654  11.023946826186897  3.0260941192929818  53.64977510100498  18.320714337007256  17.228397714725368  -5.764773376742827  52.67533650094323  -1.896265829369823  18.6573649410361  120.000000
1.2639  0.000000  0.000000  0.000000  -51.56130591336943  11.833340112172419  5.689191448487889  53.69206624785024  19.229291587428765  17.89533943821106  -5.650454437807281  52.76381777483494  -2.616845009011842  18.306648008304148  120.000000
1.32135  0.000000  0.000000  0.000000  -52.24474341499364  12.440507194643905  8.300772430875785  53.63070411221521  19.86082862917784  18.42185444431106  -5.485444080985811  52.816394504335584  -2.966437308150678  17.981004199380195  120.000000
1.3788  0.000000  0.000000  0.000000  -52.84367532215546  12.848685747278953  10.70947818052922  53.51485835820595  20.239631940786218  18.796518653883123  -5.277763225664036  52.85078985854155  -3.066601009452424  17.688480944626495  120.000000
1.43625  0.000000  0.000000  0.000000  -53.318224589689734  13.085617689323573  12.769474295047814  53.3896268041028  20.397334612001742  19.005069071235248  -5.037517527041529  52.870015100282174  -3.071679836430497  17.438399298075755  120.000000
1.4937  0.000000  0.000000  0.000000  -53.635004181632574  13.197601962754334  14.351463485983453  53.29102633680412  20.36101007648784  19.03309684340046  -4.779208421053873  52.86627470616536  -3.131144386135945  17.2388878468425  120.000000
1.55115  0.000000  0.000000  0.000000  -53.77028122469711  13.238269892550612  15.35107840485196  53.24496413152635  20.143506984914538  18.871872086944904  -4.518952290195984  52.82642206921531  -3.3604480614053465  17.096210086624904  120.000000
1.6086  0.000000  0.000000  0.000000  -53.70925160089002  13.254681351124024  15.696051658487123  53.266759746370745  19.737621518818532  18.526048594038016  -4.271344791403537  52.739962872260264  -3.823533305501633  17.014436180923642  120.000000
1.66605  0.000000  0.000000  0.000000  -53.44575552507984  13.271479118074065  15.354782907283688  53.360674165841935  19.115278226697082  18.02156846924758  -4.046277281521644  52.608102379374714  -4.527393589520059  16.994537637262276  120.000000
1.7235  0.000000  0.000000  0.000000  -52.982050404432115  13.279181036529657  14.345803593799454  53.521018655169584  18.233606923086707  17.406246371904388  -3.8496752952731725  52.44962615045253  -5.425902036961347  17.030735548568188  120.000000
1.78095  0.000000  0.000000  0.000000  -52.32984762713135  13.232811183445977  12.744714561569719  53.73386292202685  17.04553199173938  16.74076690695488  -3.6891229474229656  52.30085855220894  -6.429167290163851  17.107212414703376  120.000000
1.8384  0.000000  0.000000  0.000000  -51.51378829388556  13.064556977234313  10.683876523047774  53.98155272498367  15.510735937970368  16.08136252220151  -3.581537869135378  52.20664786769351  -7.420255360272421  17.198875341081052  120.000000
1.89585  0.000000  0.000000  0.000000  -50.56897082822896  12.703010197992116  8.342059541783854  54.24067810361905  13.60409039092337  15.463655688030892  -3.561831437064308  52.206263012579036  -8.274781118930965  17.277047576204197  120.000000
1.9533  0.000000  0.000000  0.000000  -49.53095742147136  12.091328660382576  5.92478049361063  54.48249225170934  11.322926088328297  14.892081197193457  -3.6806425692594797  52.31735102896271  -8.889247836888972  17.319104633825784  120.000000
2.01075  0.000000  0.000000  0.000000  -48.418298797793355  11.196023999999317  3.63943184586684  54.67323406383285  8.694442354899138  14.338325897325399  -3.9957621717349077  52.51968675553292  -9.207033890045391  17.315487534177755  120.000000
2.0682  0.000000  0.000000  0.000000  -47.22309637434506  10.003709939783816  1.6723107994181252  54.77533797733336  5.782614215255534  13.743737651107603  -4.567701369389515  52.74433624751709  -9.229858387662171  17.269617539533897  120.000000
2.1256500000000003  0.000000  0.000000  0.000000  -45.913145224499914  8.518135369062152  0.17337544779338301  54.753006508275185  2.6883985629815017  13.028823483412602  -5.456432479372758  52.870606345615634  -9.006009236221924  17.18690734006552  120.000000
2.1831  0.000000  0.000000  0.000000  -44.44712854723762  6.76678945781815  -0.7501888338007923  54.579698376790226  -0.46137626146147376  12.114996127558307  -6.706109128305422  52.7476346882718  -8.60198254991142  17.062905188394048  120.000000
2.24055  0.000000  0.000000  0.000000  -42.80315390105636  4.822906333659037  -1.0346510678605358  54.24661060327056  -3.538689541286198  10.945685183907793  -8.309603476924742  52.24799892685017  -8.06952959414201  16.884779902594723  120.000000
2.298  0.000000  0.000000  0.000000  -41.01264745053645  2.8046963652433985  -0.6729487801232583  53.767045657272014  -6.446069704509309  9.508025710293644  -10.169981009494622  51.322438946437615  -7.429133585901572  16.635097476669657  120.000000
2.3554500000000003  0.000000  0.000000  0.000000  -39.16735614268619  0.8436709682148115  0.25324916770787953  53.17792349174084  -9.133843382716616  7.831996547366199  -12.100381748140926  50.00070419924686  -6.663779932416169  16.299687537532826  120.000000
2.4129  0.000000  0.000000  0.000000  -37.407655862344384  -0.9685762591860545  1.6020189283274024  52.51353310287848  -11.594199436006004  5.96787014343492  -13.881991004200769  48.34753677802876  -5.7150709340258  15.87969627183721  120.000000
2.47035  0.000000  0.000000  0.000000  -35.877012411935006  -2.590676274545668  3.228394574638893  51.78330168043738  -13.837615497051443  3.9652886522926325  -15.343338072060764  46.426019693216446  -4.490100164077568  15.394968740906101  120.000000
